<mxfile host="app.diagrams.net" modified="2021-06-18T10:35:50.474Z" agent="5.0 (Windows NT 10.0; Win64; x64) AppleWebKit/537.36 (KHTML, like Gecko) Chrome/89.0.4389.90  Safari/537.36" etag="M3fabhguecg9SIhS6ydx" version="14.8.0" type="github">
  <diagram id="k8EpwF-Mrhm3FhFIJN_i" name="Page-1">
    <mxGraphModel dx="782" dy="1537" grid="1" gridSize="10" guides="1" tooltips="1" connect="1" arrows="1" fold="1" page="1" pageScale="1" pageWidth="850" pageHeight="1100" math="0" shadow="0">
      <root>
        <mxCell id="0" />
        <mxCell id="1" parent="0" />
        <mxCell id="wX9cLn0zyPNYP9aNIxbT-1" value="&lt;div&gt;application {&lt;/div&gt;&lt;div&gt;&amp;nbsp; config {&lt;/div&gt;&lt;div&gt;&amp;nbsp; &amp;nbsp; baseName dataacm&lt;/div&gt;&lt;div&gt;&amp;nbsp; &amp;nbsp; reactive true&lt;/div&gt;&lt;div&gt;&amp;nbsp; &amp;nbsp; packageName com.dbs.itt.security&lt;/div&gt;&lt;div&gt;&amp;nbsp; &amp;nbsp; applicationType microservice&amp;nbsp;&lt;/div&gt;&lt;div&gt;&amp;nbsp; &amp;nbsp; authenticationType oauth2&lt;/div&gt;&lt;div&gt;&amp;nbsp; &amp;nbsp; buildTool maven&lt;/div&gt;&lt;div&gt;&amp;nbsp; &amp;nbsp; databaseType neo4j&lt;/div&gt;&lt;div&gt;&amp;nbsp; &amp;nbsp; devDatabaseType neo4j&lt;/div&gt;&lt;div&gt;&amp;nbsp; &amp;nbsp; prodDatabaseType neo4j&lt;/div&gt;&lt;div&gt;&amp;nbsp; &amp;nbsp; cacheProvider redis&lt;/div&gt;&lt;div&gt;&amp;nbsp; &amp;nbsp; enableHibernateCache false&lt;/div&gt;&lt;div&gt;&amp;nbsp; &amp;nbsp; serverPort 8081&lt;/div&gt;&lt;div&gt;&amp;nbsp; &amp;nbsp; serviceDiscoveryType eureka&lt;/div&gt;&lt;div&gt;&amp;nbsp; &amp;nbsp; jhiPrefix rbac&lt;/div&gt;&lt;div&gt;&amp;nbsp; }&lt;/div&gt;&lt;div&gt;&amp;nbsp; entities RbacUser, RbacSecurityGroup, RbacAttribute, RbacAttributeVal, RbacPolicy, RbacPermission, RbacDataAccess, RbacPermissionApproval&lt;/div&gt;&lt;div&gt;}&lt;/div&gt;&lt;div&gt;&lt;br&gt;&lt;/div&gt;&lt;div&gt;entity RbacAttributeVal {&lt;/div&gt;&lt;div&gt;&amp;nbsp; @Id id Long required&lt;/div&gt;&lt;div&gt;&amp;nbsp; value String required&lt;/div&gt;&lt;div&gt;}&lt;/div&gt;&lt;div&gt;entity RbacAttribute {&lt;/div&gt;&lt;div&gt;&amp;nbsp; @Id id Long required&lt;/div&gt;&lt;div&gt;&amp;nbsp; name String required&lt;/div&gt;&lt;div&gt;&amp;nbsp; type String required&lt;/div&gt;&lt;div&gt;}&lt;/div&gt;&lt;div&gt;entity RbacUser {&lt;/div&gt;&lt;div&gt;&amp;nbsp; onebankId String required&lt;/div&gt;&lt;div&gt;&amp;nbsp; lanId String required&lt;/div&gt;&lt;div&gt;&amp;nbsp; email String required pattern(/^[^@\s]+@[^@\s]+\.[^@\s]+$/)&lt;/div&gt;&lt;div&gt;&amp;nbsp; status RbacUserStatus required&lt;/div&gt;&lt;div&gt;&amp;nbsp; department String required&lt;/div&gt;&lt;div&gt;&amp;nbsp; country String required&lt;/div&gt;&lt;div&gt;&amp;nbsp; managerId String&lt;/div&gt;&lt;div&gt;}&lt;/div&gt;&lt;div&gt;enum RbacUserStatus {&lt;/div&gt;&lt;div&gt;&amp;nbsp; &amp;nbsp; ACTIVE, INACTIVE, LOCKED&lt;/div&gt;&lt;div&gt;}&lt;/div&gt;&lt;div&gt;entity RbacSecurityGroup {&lt;/div&gt;&lt;div&gt;&amp;nbsp; name String required&lt;/div&gt;&lt;div&gt;&amp;nbsp; desc String required&amp;nbsp;&lt;/div&gt;&lt;div&gt;}&lt;/div&gt;&lt;div&gt;entity RbacPermission {&lt;/div&gt;&lt;div&gt;&amp;nbsp; @Id id Long required&lt;/div&gt;&lt;div&gt;&amp;nbsp; name String required&lt;/div&gt;&lt;div&gt;&amp;nbsp; desc String required&amp;nbsp;&amp;nbsp;&lt;/div&gt;&lt;div&gt;}&lt;/div&gt;&lt;div&gt;entity RbacPermissionApproval {&lt;/div&gt;&lt;div&gt;&amp;nbsp; @Id id Long required&lt;/div&gt;&lt;div&gt;&amp;nbsp; desc String required&lt;/div&gt;&lt;div&gt;&amp;nbsp; approverEmail String required pattern(/^[^@\s]+@[^@\s]+\.[^@\s]+$/)&lt;/div&gt;&lt;div&gt;&amp;nbsp; status RbacPermissionApprovalStatus required&lt;/div&gt;&lt;div&gt;}&lt;/div&gt;&lt;div&gt;enum RbacPermissionApprovalStatus {&lt;/div&gt;&lt;div&gt;&amp;nbsp; &amp;nbsp; APPROVED, PENDING, REJECTED&lt;/div&gt;&lt;div&gt;}&lt;/div&gt;&lt;div&gt;entity RbacPolicy {&lt;/div&gt;&lt;div&gt;&amp;nbsp; @Id id Long required&lt;/div&gt;&lt;div&gt;&amp;nbsp; name String required&lt;/div&gt;&lt;div&gt;&amp;nbsp; desc String required&lt;/div&gt;&lt;div&gt;}&lt;/div&gt;&lt;div&gt;entity RbacDataAccess {&lt;/div&gt;&lt;div&gt;&amp;nbsp; @Id id Long required&lt;/div&gt;&lt;div&gt;&amp;nbsp; name String required&lt;/div&gt;&lt;div&gt;&amp;nbsp; desc String required&lt;/div&gt;&lt;div&gt;}&lt;/div&gt;&lt;div&gt;relationship OneToMany {&lt;/div&gt;&lt;div&gt;&amp;nbsp; RbacAttribute{attrval} to RbacAttributeVal{attr}&lt;/div&gt;&lt;div&gt;&amp;nbsp; RbacUser{policy} to RbacPolicy{user}&lt;/div&gt;&lt;div&gt;&amp;nbsp; RbacUser{permission} to RbacPermission{user}&lt;/div&gt;&lt;div&gt;&amp;nbsp; RbacPolicy{attr} to RbacAttribute&lt;/div&gt;&lt;div&gt;&amp;nbsp; RbacPermission{attr} to RbacAttribute&lt;/div&gt;&lt;div&gt;}&lt;/div&gt;&lt;div&gt;relationship ManyToMany {&lt;/div&gt;&lt;div&gt;&amp;nbsp; RbacUser{group} to RbacSecurityGroup{user}&lt;/div&gt;&lt;div&gt;&amp;nbsp; RbacUser{dataTopic} to RbacDataAccess{user}&lt;/div&gt;&lt;div&gt;}&lt;/div&gt;&lt;div&gt;relationship OneToOne {&lt;/div&gt;&lt;div&gt;&amp;nbsp; RbacPermission{approval} to RbacPermissionApproval{permission}&lt;/div&gt;&lt;div&gt;}&lt;/div&gt;&lt;div&gt;&lt;br&gt;&lt;/div&gt;&lt;div&gt;service * with serviceImpl&lt;/div&gt;&lt;div&gt;paginate * with pagination&lt;/div&gt;&lt;div&gt;microservice * with dataacm&lt;/div&gt;&lt;div&gt;&lt;br&gt;&lt;/div&gt;&lt;div&gt;deployment {&amp;nbsp;&lt;/div&gt;&lt;div&gt;&amp;nbsp; deploymentType kubernetes&lt;/div&gt;&lt;div&gt;&amp;nbsp; appsFolders [test]&lt;/div&gt;&lt;div&gt;&amp;nbsp; dockerRepositoryName &quot;mraible&quot;&lt;/div&gt;&lt;div&gt;}&lt;/div&gt;&lt;div&gt;&lt;br&gt;&lt;/div&gt;" style="text;html=1;strokeColor=none;fillColor=none;align=center;verticalAlign=middle;whiteSpace=wrap;rounded=0;" vertex="1" parent="1">
          <mxGeometry x="380" y="220" width="40" height="20" as="geometry" />
        </mxCell>
      </root>
    </mxGraphModel>
  </diagram>
</mxfile>
